<svg xmlns="http://www.w3.org/2000/svg" viewBox="0 0 32 32" fill="none">
  <defs>
    <linearGradient id="g1" x1="0" y1="0" x2="0" y2="1">
      <stop offset="0%" stop-color="#4FACFE"/>
      <stop offset="100%" stop-color="#00F2FE"/>
    </linearGradient>
  </defs>
  <ellipse cx="16" cy="7" rx="11" ry="4" fill="url(#g1)"/>
  <path d="M5 7v6c0 2.2 4.9 4 11 4s11-1.8 11-4V7" fill="url(#g1)" opacity="0.7"/>
  <path d="M5 13v6c0 2.2 4.9 4 11 4s11-1.8 11-4v-6" fill="url(#g1)" opacity="0.5"/>
  <path d="M5 19v6c0 2.2 4.9 4 11 4s11-1.8 11-4v-6" fill="url(#g1)" opacity="0.3"/>
  <ellipse cx="16" cy="7" rx="11" ry="4" stroke="#fff" stroke-width="0.5" opacity="0.5" fill="none"/>
  <ellipse cx="16" cy="13" rx="11" ry="4" stroke="#fff" stroke-width="0.5" opacity="0.4" fill="none"/>
  <path d="M16 25v-7" stroke="#fff" stroke-width="2" stroke-linecap="round"/>
  <path d="M13 21l3-3 3 3" stroke="#fff" stroke-width="2" stroke-linecap="round" stroke-linejoin="round"/>
</svg>
