<svg xmlns="http://www.w3.org/2000/svg" viewBox="0 0 32 32" fill="none">
  <defs>
    <linearGradient id="g1" x1="0" y1="0" x2="1" y2="1">
      <stop offset="0%" stop-color="#0575E6"/>
      <stop offset="100%" stop-color="#021B79"/>
    </linearGradient>
  </defs>
  <path d="M7 4h12l6 6v18a2 2 0 0 1-2 2H7a2 2 0 0 1-2-2V6a2 2 0 0 1 2-2z" fill="url(#g1)" opacity="0.12"/>
  <path d="M7 4h12l6 6v18a2 2 0 0 1-2 2H7a2 2 0 0 1-2-2V6a2 2 0 0 1 2-2z" stroke="url(#g1)" stroke-width="1.5" fill="none"/>
  <path d="M19 4v6h6" stroke="url(#g1)" stroke-width="1.5" fill="none"/>
  <rect x="9" y="14" width="12" height="2" rx="1" fill="url(#g1)" opacity="0.5"/>
  <rect x="9" y="19" width="8" height="2" rx="1" fill="url(#g1)" opacity="0.35"/>
  <rect x="9" y="24" width="10" height="2" rx="1" fill="url(#g1)" opacity="0.2"/>
  <circle cx="24" cy="24" r="5.5" fill="url(#g1)"/>
  <path d="M22 24.5l4-4M24.5 20.5v4h-4" stroke="#fff" stroke-width="1.5" stroke-linecap="round" stroke-linejoin="round"/>
</svg>
